# xmcd CD database file
#
# Track frame offsets:
#	151
#	19708
#	37699
#	60158
#	76813
#	87526
#	109248
#	130897
#	143161
#	158155
#	174402
#
# Disc length: 2728 seconds
#
# Revision: 0
# Processed by: cddbd v1.5PL3 Copyright (c) Steve Scherf et al.
# Submitted via: CDex 1.51
#
DISCID=7d0aa60b
DTITLE=Enya - The Memory of Trees
DYEAR=1995
DGENRE=New Age
TTITLE0=The Memory of Trees
TTITLE1=Anywhere is
TTITLE2=Pax Deorum
TTITLE3=Athair Ar Nearmh
TTITLE4=From Where I Am
TTITLE5=China Roses
TTITLE6=Hope Has a Place
TTITLE7=Tea-House Moon
TTITLE8=Once You Had Gold
TTITLE9=La Sonadora
TTITLE10=On My Way Home
EXTD=YEAR: 1995
EXTT0=
EXTT1=
EXTT2=
EXTT3=
EXTT4=
EXTT5=
EXTT6=
EXTT7=
EXTT8=
EXTT9=
EXTT10=
PLAYORDER=
